<?xml version="1.0" encoding="UTF-8"?>
<svg width="200px" height="200px" viewBox="0 0 200 200" version="1.1" xmlns="http://www.w3.org/2000/svg" xmlns:xlink="http://www.w3.org/1999/xlink">
    <!-- Generator: Sketch 51.2 (57519) - http://www.bohemiancoding.com/sketch -->
    <title>Artboard 6</title>
    <desc>Created with Sketch.</desc>
    <defs></defs>
    <g id="Artboard-6" stroke="none" stroke-width="1" fill="none" fill-rule="evenodd">
        <g id="Group-14" transform="translate(6.000000, 6.000000)">
            <g id="Group-13">
                <path d="M93.96,0 C145.852,0 187.916,42.068 187.916,93.956 C187.916,145.848 145.852,187.916 93.96,187.916 C42.064,187.916 0,145.848 0,93.956 C0,42.068 42.064,0 93.96,0" id="Fill-853" stroke="#EA4A35" stroke-width="9"></path>
                <g id="Group-Copy" transform="translate(48.000000, 17.678571)" fill="#EA4A35" fill-rule="nonzero">
                    <path d="M53.3183275,0.391036025 C53.3183275,0.391036025 67.8929802,23.9179677 65.476078,47.0784364 C62.9126969,70.3854899 47.2394525,80.9396278 39.4760694,98.7497348 C31.785926,116.633135 36.2535331,135.176168 42.6986057,140.013481 C34.2028282,133.930193 11.8647927,122.569837 13.4760608,92.5198619 C14.2816949,83.2116988 19.9943728,66.5009809 33.7633914,50.3033115 C47.6056497,34.1056422 56.5408636,27.5825988 53.3183275,0.391036025 Z" id="Shape"></path>
                    <path d="M21.8985988,128.286662 C21.8985988,128.286662 1.09859191,113.70143 0.292957843,91.4937653 C-0.512676225,81.7458466 4.83380442,66.8674441 17.5774706,55.5070878 C32.2253628,42.4610011 36.2535331,39.8224667 39.256351,36.5242987 C30.833813,46.5653879 12.4507083,66.0612253 9.44789045,82.8452356 C6.51831202,99.6292464 12.4507083,116.926305 21.8985988,128.286662 Z" id="Shape"></path>
                    <path d="M47.6056497,141.552626 C47.6056497,141.552626 34.642265,122.569837 44.0901554,102.047903 C47.3126919,95.8180299 58.6648081,82.2588947 64.0845281,69.8724418 C69.5042485,57.4126961 70.6028402,49.8635559 70.3098824,41.2150265 C78.6591808,52.8685532 92.2084812,87.5359634 76.8281946,114.287771 C81.661999,111.282773 88.6929873,104.539852 91.4028473,97.2105897 C90.0845368,112.088992 83.3465063,139.940189 47.6056497,141.552626 Z" id="Shape"></path>
                    <path d="M48.9971992,138.547628 C48.9971992,138.547628 40.7211402,123.742519 50.0957914,109.010702 C57.6394558,97.1372972 65.5493174,94.645348 70.0901641,81.6725537 C70.895798,95.2316889 70.3831219,113.041796 58.7380475,128.213369 C63.5718519,127.40715 66.5746697,125.794712 70.6028402,123.082885 C67.8929802,128.873003 62.766218,136.128972 48.9971992,138.547628 Z" id="Shape"></path>
                    <path d="M35.3746596,131.658122 C35.3746596,131.658122 11.9380321,105.0529 28.4169108,77.7147522 C39.7690272,57.9257441 54.4169192,56.7530622 57.6394558,28.0956471 C57.6394558,48.7641664 59.8366397,58.8785483 42.11269,81.8924315 C30.4676157,96.9907118 27.8309951,117.292768 35.3746596,131.658122 Z" id="Shape"></path>
                    <path d="M64.4507257,3.02957041 C64.4507257,3.02957041 71.0422769,22.1589448 51.340862,49.7169705 C36.9859278,69.652564 8.71549584,99.3360757 38.7436748,135.615924 C26.5859243,123.009593 14.7943711,101.095099 27.9042346,75.1495106 C39.9155062,51.4759934 68.9183325,36.2311282 64.4507257,3.02957041 Z" id="Shape"></path>
                </g>
            </g>
        </g>
    </g>
</svg>